<svg width="114" height="50" viewBox="0 0 114 50" fill="none" xmlns="http://www.w3.org/2000/svg">
<g clip-path="url(#clip0_464_1720)">
<path d="M105.79 2.73829L99.5473 2.75543L104.687 5.77329V6.84265L99.6771 9.84908H105.783V12.0751H95.3801V10.1103L101.846 6.26716L95.3801 2.48279V0.529387L105.783 0.5V2.72686L105.79 2.73829ZM54.1464 48.7433H42.759L34.3895 31.5414C31.8296 32.9128 29.886 35.2988 27.8559 37.7902C26.2641 39.7436 24.62 41.7623 22.5842 43.4071C20.2202 45.3148 17.4619 47.0176 14.0204 48.1694C12.4637 48.6862 9.81155 49.3669 8.81567 49.4592C8.39691 49.5 8.10875 49.4837 8.04345 49.3376C7.9961 49.2216 8.10875 49.1335 8.55608 48.9245L8.95607 48.7449C9.77319 48.3858 11.3854 47.6739 12.4637 46.9311C14.1028 45.8087 15.0342 44.5883 15.1102 43.6512C15.0277 43.3614 14.8489 43.0063 14.6367 42.5794C13.6971 40.7019 12.0637 37.4367 14.733 32.2508C15.1609 31.4228 15.6007 30.601 16.0522 29.7856C16.6709 28.655 17.2146 27.6632 17.6505 26.6689C18.488 24.7735 19.0774 22.0936 19.2831 20.1108C19.2953 19.9949 19.319 20.0006 19.3835 20.0642C20.981 21.6577 27.1636 27.9309 26.2673 34.1748C28.3244 33.396 31.8908 31.0296 33.5348 29.7676C33.9283 29.4664 34.2907 29.1619 34.6368 28.8713C35.8205 27.877 36.8164 27.0403 38.2384 27.0183C39.1689 27.002 39.6179 27.2436 40.0701 27.4877C40.4179 27.6754 40.7681 27.8632 41.3387 27.9366C41.6627 27.9775 42.1468 27.913 42.3933 27.7971C42.4937 27.7505 42.4701 27.6403 42.3174 27.6052C41.5729 27.4305 41.0644 27.0795 40.5566 26.7293C39.8465 26.2396 39.1379 25.7498 37.7902 25.7498C36.2335 25.7498 34.916 26.811 33.8524 27.6673C33.4981 27.9521 33.1724 28.2142 32.8753 28.4076L27.0281 16.3901C24.5825 11.3617 25.3302 7.70956 30.6941 0.523673L54.1464 48.7449V48.7433ZM72.5474 48.7498H65.4742C62.4922 48.7498 60.9894 48.1041 59.8989 46.6968C58.7316 45.1973 58.7316 42.9125 58.7316 40.7436V0.540815H67.8259V42.0333C67.8259 45.3181 68.1974 47.6674 72.5474 48.6037V48.7482V48.7498ZM83.7985 48.7498H90.8717V48.6045C86.5217 47.6682 86.1502 45.3189 86.1502 42.0341V0.540815H77.0567V40.7436C77.0567 42.9125 77.0567 45.1973 78.2232 46.6968C79.3137 48.1041 80.8165 48.7498 83.7985 48.7498ZM105.283 32.9014C104.84 33.7294 104.177 34.4191 103.367 34.8948C102.547 35.378 101.628 35.6213 100.596 35.6213C99.5653 35.6213 98.6396 35.378 97.8266 34.8948C97.0179 34.4177 96.3553 33.7283 95.9107 32.9014C95.4511 32.0581 95.2209 31.1047 95.2209 30.0525C95.2209 29.1627 95.3801 28.3603 95.6985 27.6395C96.0038 26.9365 96.4726 26.3166 97.0658 25.8314L98.4927 27.3546C97.6788 28.046 97.2723 28.9064 97.2723 29.9358C97.2723 30.5692 97.4135 31.139 97.6968 31.6394C97.98 32.1398 98.3743 32.5291 98.8755 32.8018C99.3824 33.081 99.9539 33.2205 100.603 33.2205C101.251 33.2205 101.822 33.0818 102.329 32.8018C102.825 32.5342 103.234 32.131 103.508 31.6394C103.786 31.1455 103.933 30.5757 103.933 29.9358C103.933 28.9129 103.52 28.0517 102.701 27.3546L104.127 25.8314C104.73 26.3154 105.206 26.9402 105.512 27.6509C105.83 28.3717 105.99 29.1799 105.99 30.0696C105.99 31.1161 105.754 32.0581 105.294 32.9071L105.283 32.9014ZM103.343 24.3719C104.157 23.8899 104.824 23.194 105.27 22.3597C105.737 21.505 105.966 20.5402 105.966 19.4765C105.966 18.4129 105.737 17.4529 105.27 16.604C104.824 15.77 104.157 15.0743 103.343 14.5926C102.524 14.1044 101.604 13.8604 100.585 13.8604C99.5653 13.8604 98.6461 14.1044 97.8266 14.5926C97.015 15.0775 96.3492 15.7724 95.8993 16.604C95.4332 17.4529 95.2038 18.4063 95.2038 19.4765C95.2038 20.5459 95.4332 21.5058 95.8993 22.3597C96.344 23.1954 97.0109 23.8921 97.8266 24.3727C98.6461 24.8551 99.5653 25.0992 100.585 25.0992C101.604 25.0992 102.524 24.8543 103.343 24.3719ZM102.318 16.6856C102.809 16.9539 103.217 17.3521 103.497 17.8366C103.779 18.319 103.921 18.8716 103.921 19.4765C103.921 20.0806 103.773 20.6275 103.497 21.1156C103.22 21.6027 102.811 22.0017 102.318 22.2666C101.811 22.5458 101.24 22.6854 100.591 22.6854C99.9424 22.6854 99.371 22.5466 98.8641 22.2674C98.3742 21.9976 97.9668 21.5998 97.6854 21.1165C97.4021 20.6332 97.2609 20.0814 97.2609 19.4757C97.2609 18.8716 97.4021 18.3247 97.6854 17.8366C97.9619 17.3495 98.3706 16.9505 98.8641 16.6856C99.371 16.4064 99.9424 16.2668 100.591 16.2668C101.24 16.2668 101.811 16.4064 102.318 16.6856ZM97.82 39.4595C97.82 40.7599 96.7515 41.8137 95.4332 41.8137C94.1149 41.8137 93.0463 40.7599 93.0463 39.4595C93.0463 38.1583 94.1149 37.1045 95.4332 37.1045C96.7515 37.1045 97.82 38.1583 97.82 39.4595Z" fill="#1E1852"/>
</g>
<defs>
<clipPath id="clip0_464_1720">
<rect width="113.426" height="49" fill="white" transform="translate(0.279846 0.5)"/>
</clipPath>
</defs>
</svg>
