<svg width="146" height="50" viewBox="0 0 146 50" fill="none" xmlns="http://www.w3.org/2000/svg">
<g clip-path="url(#clip0_464_1722)">
<path fill-rule="evenodd" clip-rule="evenodd" d="M143.238 43.9986C143.238 43.4402 142.835 43.1618 142.027 43.1618H140.63V44.8371H141.564C142.681 44.8371 143.238 44.5571 143.238 43.9986ZM143.889 43.9986C143.889 44.8064 143.364 45.2094 142.307 45.2094L143.798 47.445H143.144L141.747 45.2094H140.63V47.445H140.073V42.6956H142.121C142.681 42.6956 143.115 42.7895 143.426 42.9739C143.735 43.1618 143.889 43.5016 143.889 43.9986ZM145.38 45.1155C145.38 44.0601 145.04 43.1601 144.355 42.4138C143.672 41.6692 142.77 41.2969 141.653 41.2969C140.663 41.2969 139.792 41.6709 139.049 42.4138C138.301 43.1618 137.932 44.0601 137.932 45.1155C137.932 46.1709 138.289 47.0573 139.003 47.7711C139.717 48.485 140.601 48.8419 141.655 48.8419C142.712 48.8419 143.597 48.485 144.311 47.7711C145.024 47.0573 145.38 46.1709 145.38 45.1155ZM29.3381 26.8626L29.2441 15.1283L23.2839 26.8626H29.3381ZM145.94 45.1155C145.94 46.2939 145.537 47.2878 144.729 48.0956C143.921 48.9034 142.898 49.3065 141.653 49.3065C140.536 49.3065 139.542 48.9034 138.675 48.0956C137.804 47.2878 137.37 46.2939 137.37 45.1155C137.37 43.9371 137.79 42.9278 138.627 42.0893C139.019 41.6845 139.489 41.3642 140.009 41.148C140.529 40.9318 141.088 40.8244 141.651 40.8324C142.896 40.8324 143.919 41.2354 144.727 42.0432C145.535 42.851 145.94 43.8757 145.94 45.1155ZM142.493 4.88147L139.047 15.1266C137.122 14.1326 135.398 13.4034 133.878 12.9389C132.356 12.4726 131.068 12.2404 130.011 12.2404C128.834 12.2404 127.933 12.4265 127.313 12.7988C126.689 13.1711 126.256 13.6374 126.005 14.1958C125.634 14.756 125.448 15.4698 125.448 16.3374C125.448 16.9573 125.557 17.5021 125.774 17.9683C125.991 18.4329 126.768 19.2714 128.102 20.4822C129.372 21.6328 130.629 22.7971 131.874 23.9747C133.051 25.0916 133.813 25.9301 134.156 26.4886C134.496 27.047 134.916 27.9795 135.413 29.2842C135.906 30.589 136.158 32.0457 136.158 33.6613C136.158 35.6475 135.538 37.9291 134.296 40.5062C133.051 43.0832 130.927 45.2248 127.916 46.9326C124.905 48.6404 121.535 49.4943 117.812 49.4943C114.583 49.4943 111.712 48.9973 109.196 48.0034C106.681 47.0095 104.616 45.7679 103.002 44.2787L106.541 33.4752C108.462 34.6547 110.489 35.6524 112.595 36.4553C114.583 37.1999 116.694 37.5722 118.929 37.5722C120.171 37.5722 121.211 37.2152 122.048 36.5014C122.884 35.7875 123.305 34.9336 123.305 33.9397C123.305 32.7596 122.621 31.7042 121.257 30.7734C119.018 28.9734 117.25 27.4056 115.947 26.0701C114.643 24.7363 113.777 23.5563 113.34 22.5316C112.931 21.5914 112.635 20.6067 112.455 19.5976C112.305 18.7369 112.226 17.8652 112.221 16.9915C112.221 14.6313 112.735 12.3189 113.758 10.0527C114.781 7.78644 116.32 5.89249 118.367 4.37084C120.415 2.84919 122.34 1.82451 124.141 1.2968C125.99 0.76321 127.905 0.496939 129.828 0.506087C132.621 0.506087 135.211 0.955239 137.604 1.85525C139.993 2.75526 141.624 3.76457 142.493 4.88147ZM39.9537 47.8156H29.6164L29.5225 36.9198H17.9744L12.4804 47.8156H0.279846L24.3086 1.53077H39.4892L39.9537 47.8156ZM90.0589 1.53077L66.0318 47.8156H49.5464L48.7096 1.53077H60.6301L61.0963 33.8475L77.8583 1.53077H90.0589ZM107.567 1.53077L92.0143 47.8173H80.654L96.2069 1.53077H107.567Z" fill="#CC2229"/>
</g>
<defs>
<clipPath id="clip0_464_1722">
<rect width="145.66" height="49" fill="white" transform="translate(0.279846 0.5)"/>
</clipPath>
</defs>
</svg>
