<svg width="151" height="44" viewBox="0 0 151 44" fill="none" xmlns="http://www.w3.org/2000/svg">
<path fill-rule="evenodd" clip-rule="evenodd" d="M80.7063 7.51861L74.3586 11.4349C73.8492 10.6438 73.211 9.9367 72.39 9.25116C71.5698 8.56478 70.5669 7.90001 69.0819 7.46957C67.597 7.03997 65.6285 6.84636 63.5012 6.92114C61.3723 6.99676 59.0847 7.34244 56.5253 8.4393C53.9659 9.53368 51.1357 11.3792 48.6744 13.6004L53.4042 1.02797H41.5364L33.5193 6.50483L35.2386 1.02797H23.4149L14.7072 6.79567L0.654846 43.4618H12.0299L20.4733 37.4565L18.3302 43.515H29.9404L36.0164 38.56C36.3546 39.4541 36.9977 40.1995 38.5034 41.0595C40.0091 41.9212 42.3782 42.9017 45.1054 43.161C47.8318 43.4194 50.9172 42.9582 53.5388 41.942C56.1605 40.9257 58.3202 39.3552 59.6505 38.417C60.9809 37.4805 61.482 37.1772 61.9864 36.8798L59.5716 43.0164H71.0746L78.9097 36.633C78.7751 37.7415 79.0884 38.8957 79.916 39.9053C80.742 40.9132 82.0798 41.775 83.9279 42.2843C85.7768 42.7954 88.1359 42.9549 90.2897 42.792C92.4452 42.6333 94.3938 42.1522 96.3973 41.1301C98.3982 40.1089 100.45 38.5433 102.177 36.6895L100.062 42.7447H123.477L132.951 35.9283L135.417 27.9935H126.501L139.906 14.797L142.775 7.49617H120.238L117.456 8.56644L117.792 7.51029H105.952L108.527 0.485352H98.3716L89.2892 7.51777H80.7063V7.51861ZM145.175 13.4109H145.987V11.7623H146.2C146.677 11.7623 146.916 11.975 147.325 12.7636L147.658 13.4109H148.662L148.192 12.6049C147.778 11.8961 147.679 11.7856 147.342 11.6551C148.007 11.5604 148.421 11.1308 148.421 10.5367C148.421 9.80873 147.936 9.39823 147.076 9.39657H145.176L145.175 13.4109ZM145.987 11.1308V10.0356H146.729C147.262 10.0356 147.56 10.2209 147.56 10.5524C147.56 10.9796 147.327 11.125 146.646 11.1291L146.318 11.1316H145.987V11.1308ZM146.88 7.60502C146.383 7.60535 145.892 7.70352 145.433 7.89392C144.975 8.08432 144.559 8.36322 144.208 8.71467C143.857 9.06612 143.579 9.48323 143.39 9.94215C143.201 10.4011 143.104 10.8928 143.105 11.3892C143.104 11.8855 143.201 12.3771 143.391 12.8359C143.58 13.2947 143.858 13.7116 144.208 14.063C144.559 14.4143 144.975 14.6931 145.434 14.8835C145.892 15.0739 146.383 15.1721 146.88 15.1726C147.882 15.171 148.843 14.7717 149.55 14.0623C150.258 13.3528 150.656 12.3914 150.655 11.3892C150.655 10.8929 150.558 10.4012 150.369 9.9424C150.18 9.48358 149.902 9.06656 149.551 8.71516C149.201 8.36375 148.784 8.08485 148.326 7.89437C147.868 7.70389 147.376 7.60557 146.88 7.60502ZM146.886 8.34375C147.285 8.34473 147.68 8.4243 148.049 8.57792C148.417 8.73154 148.752 8.9562 149.033 9.23908C149.314 9.52196 149.538 9.8575 149.689 10.2266C149.841 10.5956 149.919 10.991 149.918 11.39C149.919 12.1956 149.601 12.9686 149.032 13.5394C148.464 14.1102 147.692 14.4319 146.886 14.4339C145.211 14.4339 143.857 13.0702 143.855 11.3892C143.854 10.9902 143.932 10.5948 144.083 10.2257C144.235 9.85667 144.458 9.52113 144.74 9.2383C145.021 8.95547 145.356 8.73089 145.724 8.5774C146.092 8.4239 146.487 8.34451 146.886 8.34375Z" fill="black"/>
<path fill-rule="evenodd" clip-rule="evenodd" d="M29.5848 14.4622L34.2498 1.74598H24.0456L10.8607 36.3015H21.1513L26.521 21.9965H34.1924L28.8992 36.1644H39.3278L52.2874 1.68449H41.9561L37.011 14.4622H29.5848ZM73.8508 12.3515C73.6315 11.5862 73.1819 10.9647 72.2105 10.2193C70.9034 9.21576 69.3799 8.53143 67.7616 8.22082C65.7772 7.84107 63.3026 7.95325 61.7438 8.10449C60.1849 8.25822 59.5425 8.44934 58.9118 8.63713C58.2811 8.8241 57.6621 9.00525 56.9267 9.33182C56.1913 9.65839 55.3395 10.1295 54.5352 10.6722C53.7322 11.215 52.9786 11.8275 52.2833 12.5028C51.0734 15.1326 49.9373 17.7958 48.8763 20.4891C47.8061 23.1989 46.7964 25.961 46.3269 27.5988C45.8583 29.2366 45.9297 29.751 45.9339 30.2554C45.9389 30.7598 45.8749 31.2534 46.1283 31.9306C46.3818 32.6045 46.951 33.4596 47.6864 34.1119C48.4201 34.7625 49.3217 35.2104 50.4161 35.537C51.5121 35.8619 52.8026 36.0646 54.2044 36.181C55.6071 36.2965 57.1186 36.3272 58.7365 36.1386C60.3544 35.9516 62.0778 35.5461 63.5752 34.7949C65.0726 34.0421 66.3439 32.9427 67.3968 31.5102C68.4496 30.0784 69.2831 28.3143 69.7617 26.4679H61.4554C60.676 27.7908 59.7885 29.0713 59.2002 29.7784C58.611 30.4881 58.3185 30.626 58.0061 30.764C57.6937 30.9052 57.3588 31.0448 56.9142 31.0024C56.4705 30.9584 55.9154 30.7299 55.6553 30.0352C55.396 29.3422 55.4301 28.1846 55.6536 27.1102C55.8669 26.0651 56.2812 25.0715 56.8735 24.1844H70.5386C71.0849 22.6054 71.652 21.0336 72.2396 19.4695C72.8238 17.9289 73.4329 16.4332 73.7437 15.2308C74.0553 14.0259 74.0669 13.1168 73.8508 12.3515ZM65.0119 17.0489C64.7826 17.5874 64.5632 18.0685 64.3106 18.5306H59.0032C59.2726 17.79 59.5687 17.0594 59.8907 16.3401C60.2007 15.6421 60.5106 14.9857 60.9518 14.4962C61.3939 14.0076 61.9673 13.6869 62.6188 13.5273C63.2702 13.3678 63.9981 13.3695 64.5283 13.6944C65.0585 14.0201 65.3917 14.6682 65.4374 15.2906C65.4831 15.9139 65.2421 16.5105 65.0119 17.0489ZM85.132 18.9386C85.658 17.5002 86.395 16.1474 87.4836 15.466C88.573 14.7854 90.1194 14.8195 91.6641 14.8527L93.9593 8.42773H80.6788L70.188 35.832H78.9455L85.132 18.9386ZM88.3071 31.2534C88.4566 32.6993 89.0782 33.6116 90.0488 34.3146C91.0193 35.0143 92.3356 35.5029 94.4263 35.7896C96.5153 36.0771 99.3779 36.1627 101.45 35.8203C103.526 35.4763 104.812 34.7052 105.888 33.7446C106.964 32.7824 107.919 31.6722 108.42 30.3559L111.823 21.404H103.817L101.361 28.0193C101.115 28.6849 100.865 29.3812 100.318 29.8324C99.771 30.287 99.0506 30.5305 98.4855 30.444C97.9188 30.3576 97.5116 29.9438 97.3263 29.4668C97.141 28.9898 97.2274 28.4722 97.4011 28.0143L102.353 15.0231H114.043L116.669 8.25323H104.829L107.541 1.16016H98.714L89.2161 26.0815C88.5406 27.8489 88.1592 29.8059 88.3071 31.2534ZM112.69 28.7331L110.374 35.527H132.25L134.531 28.7331H124.325L139.124 14.7555L141.673 8.07042H120.24L117.691 14.7555H128L112.69 28.7331Z" fill="#F7E946"/>
</svg>
