<svg width="152" height="46" viewBox="0 0 152 46" fill="none" xmlns="http://www.w3.org/2000/svg">
<g clip-path="url(#clip0_464_1709)">
<path d="M0.654831 0.506592H2.52585V45.4111H0.654831V0.506592ZM4.12958 0.506592H6.53518V45.4111H4.12958V0.506592ZM7.60434 0.506592H10.5445V45.4111H7.60434V0.506592ZM12.1482 0.506592H23.6417V45.4111H12.1482V0.506592ZM26.3145 17.348H41.8173V28.5741H26.3145V17.348ZM92.0676 31.5121H111.58L116.124 45.4133H86.9891L92.0676 31.5121Z" fill="black"/>
<path d="M110.51 0.506553V11.4654H125.746C129.401 11.599 129.401 17.2789 126.013 17.3457H106.768L101.155 0.506553H88.5928L75.2284 33.9176H68.2789C64.2473 33.9845 57.0639 31.6457 57.0528 22.6915C57.0639 13.9378 65.5837 11.599 68.8135 11.4654H74.4265V0.506553H63.735C56.8968 0.40632 44.2006 6.92148 44.2229 22.6915C44.2006 33.6504 54.7251 45.5113 66.1406 45.4111H84.8508L94.2059 19.2168L97.6806 28.5719H123.34C126.559 28.6387 128.731 31.6457 128.686 33.6504V45.4111H140.18V29.3737C140.258 26.8011 137.585 24.1282 135.903 23.7607C138.754 23.1259 142.262 16.281 142.318 11.4654C142.264 6.42254 137.418 0.408548 130.824 0.506553H110.51ZM147.249 45.4935C149.577 45.4935 151.459 43.5979 151.459 41.2614C151.459 38.9449 149.577 37.0516 147.249 37.0516C144.911 37.0516 143.017 38.9449 143.017 41.2614C143.017 42.3838 143.463 43.4603 144.257 44.2539C145.05 45.0476 146.127 45.4935 147.249 45.4935ZM147.249 44.9366C145.189 44.9366 143.683 43.3307 143.683 41.2614C143.683 39.2122 145.189 37.6085 147.249 37.6085C149.299 37.6085 150.791 39.2122 150.791 41.2614C150.791 43.3307 149.299 44.9366 147.249 44.9366ZM147.929 41.4485C148.764 41.4262 149.41 41.081 149.41 40.1566C149.41 39.377 148.987 38.9093 147.739 38.9093H145.679V43.618H146.258V41.4463H147.316L148.664 43.618H149.354L147.929 41.4485ZM146.258 40.9919V39.3213H147.606C148.185 39.3213 148.784 39.4104 148.784 40.1455C148.784 41.1033 147.806 40.9919 147.138 40.9919H146.258Z" fill="black"/>
</g>
<defs>
<clipPath id="clip0_464_1709">
<rect width="150.804" height="45" fill="white" transform="translate(0.654831 0.5)"/>
</clipPath>
</defs>
</svg>
