<svg width="125" height="50" viewBox="0 0 125 50" fill="none" xmlns="http://www.w3.org/2000/svg">
<g clip-path="url(#clip0_464_1715)">
<path d="M87.9199 49.5001C87.9298 49.4051 87.8598 49.3951 87.7949 49.4051C87.3348 49.4751 86.8948 49.2601 86.4348 49.3101C85.7048 49.1001 84.9248 49.1251 84.2098 48.8401C83.7098 48.8551 83.2698 48.6201 82.7898 48.5251C82.3698 48.4401 81.9648 48.2701 81.5598 48.1201C80.9048 47.8751 80.2548 47.6151 79.6098 47.3451C79.0048 47.0901 78.4248 46.7801 77.8348 46.5001C77.4048 46.2801 76.9949 46.0351 76.5948 45.7651C76.1548 45.4901 75.7248 45.2001 75.3148 44.8851C75.0598 44.6901 74.7998 44.4951 74.5398 44.3051C73.5498 43.5751 72.7298 42.6601 71.8598 41.8001C71.4198 41.3601 71.0698 40.8451 70.6898 40.3551C70.4048 39.9951 70.1348 39.6201 69.8798 39.2351C69.6098 38.8351 69.3598 38.4251 69.1148 38.0101C68.8398 37.5451 68.5948 37.0701 68.3748 36.5751C68.0698 35.9001 67.7598 35.2201 67.5098 34.5151C67.3398 34.0401 67.1498 33.5701 67.0048 33.0801C66.8848 32.6651 66.7648 32.2451 66.6548 31.8251C66.5798 31.5501 66.5348 31.2651 66.4548 30.9901C66.3848 30.7301 66.3298 30.4651 66.2898 30.1951C66.2448 29.9251 66.1398 29.6501 66.1749 29.3701C66.1999 29.1701 66.0448 29.0301 66.0598 28.8301C66.0698 28.6551 66.1548 28.4451 65.9799 28.2851C65.9648 28.2701 65.9698 28.2251 65.9748 28.1951C66.0448 27.6251 65.8498 27.0701 65.8699 26.4951C65.8949 25.8051 65.9048 25.1101 65.8699 24.4201C65.8298 23.6201 65.9548 22.8351 65.9898 22.0451C66.0148 21.5051 66.0798 20.9651 66.1848 20.4351C66.3048 19.8451 66.4198 19.2501 66.5398 18.6551C66.6648 18.0651 66.8549 17.4951 66.9998 16.9101C67.0899 16.5601 67.2048 16.2251 67.3249 15.8851C67.4698 15.4301 67.6398 14.9851 67.8298 14.5451C68.1498 13.8551 68.4748 13.1701 68.8198 12.4901C69.1699 11.8051 69.5749 11.1501 70.0199 10.5251C70.4448 9.92011 70.8949 9.33011 71.3748 8.76011C72.0948 7.89011 72.9099 7.13011 73.7198 6.36011C74.2048 5.90011 74.7048 5.42511 75.3249 5.11511C75.9448 4.51511 76.7598 4.20511 77.4348 3.68011C78.1098 3.44011 78.6998 3.02011 79.3798 2.77511C79.7648 2.63511 80.1598 2.47511 80.5348 2.30011C81.1148 2.02511 81.7399 1.85011 82.3448 1.66011C83.0049 1.44511 83.6798 1.27511 84.3598 1.14511C84.8348 1.06011 85.3198 0.985107 85.7848 0.855107C86.0348 0.790107 86.3048 0.855107 86.5148 0.760107C86.7548 0.645107 86.9798 0.690107 87.2098 0.690107C87.3898 0.690107 87.5148 0.540107 87.7048 0.575107C87.8648 0.590107 88.0248 0.585107 88.1798 0.565107C88.1948 0.565107 88.2048 0.515107 88.2148 0.485107H92.0798C92.0698 0.525107 92.0948 0.570107 92.1348 0.580107H92.1548C92.4298 0.625107 92.7048 0.535107 92.9949 0.650107C93.2598 0.755107 93.5748 0.650107 93.8648 0.760107C94.0598 0.835107 94.2849 0.770107 94.5048 0.855107C94.6948 0.925107 94.9248 0.925107 95.1348 0.950107C95.6848 1.01511 96.2098 1.18511 96.7498 1.27511C97.2198 1.37011 97.6798 1.50011 98.1298 1.66011C99.2048 2.01511 100.275 2.39011 101.29 2.89511C101.97 3.23511 102.665 3.56011 103.31 3.97011C103.81 4.28511 104.3 4.63011 104.78 4.98511C105.535 5.53511 106.255 6.13011 106.93 6.77511C107.23 7.06511 107.52 7.37011 107.82 7.66011C108.07 7.88011 108.275 8.14511 108.42 8.44511C108.15 8.70011 107.875 8.95011 107.59 9.19511C107.05 9.66011 106.58 10.2051 106.02 10.6601C105.55 11.0401 105.165 11.5051 104.7 11.8951C104.08 12.4151 103.53 13.0201 102.925 13.5651C102.41 14.0351 101.92 14.5301 101.365 14.9801C101.21 14.8901 101.06 14.7901 100.92 14.6751C100.495 14.2551 100.045 13.8651 99.5598 13.5151C99.1998 13.2351 98.8198 12.9751 98.4348 12.7351C98.1348 12.5601 97.8549 12.3551 97.5548 12.1801C97.0398 11.8751 96.5049 11.6101 95.9499 11.3851C95.6049 11.2451 95.2449 11.1451 94.9098 10.9851C94.5398 10.8151 94.1498 10.7001 93.7498 10.6401C93.3448 10.5701 92.9598 10.3651 92.5298 10.4301C92.3398 10.2451 92.1049 10.3751 91.8949 10.3351C91.6849 10.2951 91.4798 10.2251 91.2598 10.2351C90.7598 10.2551 90.2598 10.2351 89.7648 10.2451C89.2648 10.2551 88.7999 10.2651 88.3048 10.3151C87.8098 10.3651 87.3398 10.5451 86.8398 10.5351C85.9048 10.8401 84.9598 11.1151 84.0698 11.5451C83.7999 11.6751 83.5498 11.8401 83.2848 11.9851C82.4498 12.4451 81.6998 13.0351 80.9848 13.6651C80.4148 14.1651 79.9498 14.7651 79.4848 15.3651C79.0998 15.8551 78.7698 16.3801 78.4898 16.9351C78.3098 17.2951 78.1548 17.6651 77.9748 18.0251C77.7849 18.4001 77.7348 18.8251 77.4998 19.1851C77.5098 19.6201 77.2598 19.9901 77.1749 20.4101C77.1049 20.7801 77.0198 21.1451 76.9148 21.5051C76.8048 21.8901 76.7448 22.2851 76.7348 22.6801C76.7048 23.2951 76.5548 23.9001 76.6148 24.5251C76.6348 24.7651 76.6348 25.0101 76.6148 25.2501C76.5548 25.9651 76.7198 26.6701 76.7098 27.3851C76.7098 27.4301 76.6999 27.5001 76.7248 27.5201C76.8648 27.6351 76.8198 27.7951 76.7949 27.9201C76.7648 28.0801 76.9148 28.1651 76.9048 28.3151C76.8798 28.7351 77.0698 29.1101 77.1598 29.5101C77.2748 29.9751 77.4099 30.4351 77.5698 30.8851C77.7748 31.4951 78.0548 32.0701 78.2898 32.6651C78.4498 33.0201 78.6348 33.3601 78.8498 33.6851C79.3348 34.4551 79.8898 35.1801 80.5098 35.8501C80.9948 36.3651 81.5348 36.8301 82.1148 37.2401C82.4948 37.5351 82.9048 37.7951 83.3348 38.0151C83.8448 38.2601 84.3348 38.5501 84.8648 38.7501C85.4498 38.9701 86.0548 39.1501 86.6498 39.3451C86.9048 39.2851 87.1348 39.4801 87.3848 39.4401C87.5898 39.6601 87.9198 39.4201 88.1248 39.6351C88.5698 39.5701 88.9948 39.7801 89.4398 39.7301C89.7148 39.7101 89.9848 39.7101 90.2598 39.7301C90.9448 39.7701 91.6199 39.6701 92.2949 39.6351C92.3249 39.6351 92.3748 39.6501 92.3898 39.6351C92.4948 39.5301 92.6498 39.4951 92.7848 39.5451C92.9598 39.5901 93.0648 39.4401 93.2299 39.4351C93.6098 39.4201 93.9649 39.2851 94.3249 39.1751C95.0248 38.9601 95.7298 38.7601 96.3648 38.3851C96.6848 38.3751 96.9448 38.1901 97.1798 38.0301C97.4298 37.8501 97.7198 37.7601 97.9648 37.5751C98.4298 37.2251 98.9298 36.9401 99.3798 36.5551C99.8298 36.1701 100.54 35.5001 100.865 34.9951C101.295 34.3251 101.765 33.6851 102.04 32.9201C102.27 32.3201 102.465 31.7051 102.62 31.0851C102.67 30.8551 102.62 30.6001 102.725 30.4101C102.845 30.1801 102.765 29.9901 102.785 29.7651H89.0749V20.2351H113.515C113.515 20.3801 113.465 20.5401 113.525 20.6301C113.69 20.8801 113.585 21.1701 113.695 21.4301C113.775 21.6301 113.725 21.8801 113.79 22.1101C113.855 22.3401 113.745 22.6101 113.9 22.8401C113.86 23.3001 113.975 23.7451 113.99 24.2001C114.015 25.0351 114.005 25.8751 113.99 26.7151C113.985 27.0751 114.045 27.4301 113.91 27.7901C113.84 27.9751 113.875 28.2051 113.905 28.4101C113.93 28.6151 113.78 28.7901 113.795 29.0001C113.81 29.2301 113.87 29.4751 113.705 29.6851C113.68 30.2551 113.52 30.8001 113.425 31.3551C113.33 31.9101 113.155 32.4701 113.03 33.0301C112.91 33.5851 112.74 34.1301 112.525 34.6551C112.145 35.5601 111.79 36.4801 111.295 37.3351C110.945 37.9501 110.59 38.5601 110.225 39.1601C109.675 40.0551 109 40.8551 108.34 41.6651C108.185 41.8501 108 42.0101 107.83 42.1801C107.66 42.3501 107.425 42.4951 107.34 42.7051C107.235 42.9601 106.995 43.0051 106.84 43.1651C106.155 43.8501 105.41 44.4701 104.615 45.0201C103.925 45.5301 103.2 45.9951 102.445 46.4051C101.705 46.7901 100.97 47.1901 100.195 47.5051C99.6049 47.7501 99.0098 47.9901 98.4098 48.2101C97.9748 48.3701 97.5198 48.4701 97.0798 48.6051C96.9148 48.6551 96.7398 48.7551 96.5499 48.7251C96.4099 48.9351 96.1348 48.7001 95.9898 48.8951C95.6598 48.9501 95.3348 49.0151 95.0098 49.0951C94.8348 49.1401 94.6498 49.1151 94.4648 49.1851C94.2798 49.2551 94.0598 49.1651 93.8848 49.2951C93.4548 49.2251 93.0499 49.4401 92.6199 49.3901C92.5499 49.3801 92.4499 49.3501 92.4448 49.4851L87.9199 49.5001ZM0.654846 1.46511H10.8498C10.9248 1.90511 10.9598 46.6401 10.8848 48.5301H0.654846V1.46511ZM49.5548 20.2001V1.48011H59.7798V48.5201H49.5748V29.8401C49.1448 29.7601 30.9248 29.7251 29.2598 29.8001V48.5051H19.0298V1.49011H29.2598V20.2001H49.5548ZM124.26 7.26511C124.29 7.73511 124.225 8.20511 124.065 8.65011C123.875 9.22511 123.58 9.75511 123.2 10.2251C122.675 10.8751 122.025 11.3151 121.28 11.6451C120.96 11.7851 120.625 11.8751 120.28 11.9101C119.97 11.9401 119.67 12.0501 119.355 12.0051C118.93 11.9451 118.5 11.9101 118.1 11.7701C117.625 11.6001 117.145 11.4051 116.74 11.0951C116.035 10.5551 115.48 9.84011 115.145 9.01511C115.025 8.72511 114.935 8.42011 114.87 8.11011C114.775 7.71511 114.815 7.33011 114.79 6.94011C114.755 6.40511 114.955 5.92011 115.125 5.43511C115.415 4.62511 115.98 3.99511 116.63 3.46011C117.12 3.06011 117.69 2.77511 118.305 2.62011C118.5 2.57011 118.69 2.50011 118.895 2.53011C119.1 2.56011 119.245 2.43511 119.435 2.42011C119.695 2.40511 119.925 2.55511 120.165 2.52011C120.43 2.48511 120.66 2.59011 120.895 2.64511C121.115 2.68511 121.325 2.77511 121.51 2.90511C121.695 3.04511 121.96 3.07511 122.15 3.21511C122.665 3.59011 123.16 3.99011 123.495 4.56011C123.67 4.84011 123.83 5.13011 123.965 5.43011C124.08 5.73511 124.175 6.05511 124.245 6.37511C124.315 6.62511 124.26 6.91011 124.26 7.26511ZM119.725 3.29011C119.19 3.32011 118.83 3.26511 118.475 3.39511C118.055 3.54511 117.65 3.73511 117.265 3.97011C117.11 4.06511 117.01 4.23511 116.825 4.31511C116.64 4.39511 116.585 4.63011 116.455 4.78511C115.99 5.33011 115.715 6.00511 115.665 6.72011C115.625 7.20511 115.6 7.70011 115.755 8.17511C115.85 8.46011 115.91 8.75511 116.05 9.01511C116.305 9.50011 116.655 9.93011 117.08 10.2751C117.35 10.4901 117.64 10.7151 117.96 10.8301C118.49 11.0251 119.035 11.1651 119.62 11.1451C120.165 11.1201 120.705 10.9851 121.2 10.7601C121.95 10.4301 122.485 9.86511 122.905 9.17511C123.24 8.64511 123.41 8.02511 123.39 7.40011C123.38 7.22511 123.385 7.04511 123.39 6.87011C123.39 6.56511 123.33 6.26011 123.215 5.97511C123.055 5.53511 122.845 5.12011 122.58 4.74011C122.345 4.39511 122.03 4.10511 121.665 3.90511C121.025 3.53011 120.345 3.18011 119.725 3.29011Z" fill="#D86932"/>
<path d="M121.35 5.86C121.445 6.615 121.2 7.19 120.445 7.525C120.775 8.195 121.23 8.78 121.6 9.465H120.535L119.425 7.67H118.955V9.465H117.935C117.865 9.085 117.84 6.25 117.905 4.845C118.64 4.845 119.38 4.81 120.11 4.855C120.565 4.87 120.975 5.14 121.175 5.55C121.225 5.66 121.245 5.795 121.35 5.86ZM119.97 6.895L120.285 6.65V5.95L119.97 5.635H118.965V6.98C119.34 6.96 119.7 7.03 119.97 6.895Z" fill="#D86932"/>
</g>
<defs>
<clipPath id="clip0_464_1715">
<rect width="123.625" height="49" fill="white" transform="translate(0.654846 0.5)"/>
</clipPath>
</defs>
</svg>
