<svg width="111" height="56" viewBox="0 0 111 56" fill="none" xmlns="http://www.w3.org/2000/svg">
<g clip-path="url(#clip0_464_1724)">
<path d="M52.7758 44.7369C51.6635 46.0392 50.4427 46.9887 49.0862 47.6669C47.7297 48.3181 46.2647 48.6436 44.7183 48.6436C42.0867 48.6436 39.9163 47.6398 38.2343 45.6593C36.5522 43.6789 35.7112 41.1015 35.7112 37.9274C35.7112 33.9664 36.8507 30.6566 39.1567 28.025C41.4356 25.3934 44.3113 24.0912 47.7297 24.0912C49.3303 24.0912 50.7411 24.4168 52.0162 25.0679C53.2641 25.719 54.4036 26.7499 55.4345 28.1335L55.95 24.8237H63.6277L60.8062 42.5937C60.345 45.5779 57.7406 47.7755 54.7292 47.7755H52.4231L52.7758 44.7369ZM43.823 37.1406C43.823 38.6056 44.2571 39.7993 45.1524 40.6946C46.0476 41.5899 47.2414 42.024 48.7064 42.024C50.307 42.024 51.6635 41.4 52.7216 40.152C53.7796 38.904 54.3222 37.3305 54.3222 35.4586C54.3222 34.0207 53.8881 32.8812 52.9929 31.986C52.0976 31.0907 50.931 30.6566 49.4931 30.6566C47.8653 30.6566 46.5089 31.2806 45.4237 32.5014C44.3656 33.7223 43.823 35.2687 43.823 37.1406ZM79.7428 47.8026L83.3782 24.8237H91.1644L90.5947 28.7304C91.3 27.2654 92.2496 26.1802 93.4704 25.4206C94.6641 24.6609 96.0749 24.2811 97.6484 24.2811C97.8112 24.2811 98.0011 24.2811 98.2181 24.3082C98.4352 24.3354 98.7607 24.3896 99.2219 24.4439L97.5941 31.6604C97.0516 31.5519 96.5903 31.4434 96.1562 31.3891C95.7222 31.3348 95.3152 31.3077 94.9354 31.3077C93.3619 31.3077 92.1411 31.796 91.2458 32.7727C90.3505 33.7494 89.7265 35.2686 89.401 37.3034L88.5057 43.082C88.0716 45.795 85.7656 47.7755 83.0255 47.7755H79.7428V47.8026ZM97.3771 47.8026L100.985 24.8237H109.151L106.357 42.5123C105.869 45.5508 103.264 47.8026 100.171 47.8026H97.3771ZM101.609 17.987C101.609 16.7933 102.043 15.7895 102.884 14.9485C103.725 14.1075 104.756 13.6734 105.95 13.6734C107.198 13.6734 108.256 14.0803 109.097 14.8942C109.938 15.7081 110.345 16.739 110.345 17.987C110.345 19.2078 109.911 20.2659 109.07 21.1069C108.229 21.948 107.171 22.382 105.95 22.382C104.756 22.382 103.725 21.948 102.884 21.1069C102.016 20.2388 101.609 19.2078 101.609 17.987ZM77.5724 24.8237L78.6305 18.1498H70.5458L69.5149 24.8237H65.6896L64.7672 30.6837H68.5925L65.8795 47.8026H69.0537C71.8752 47.8026 74.2897 45.7407 74.7238 42.9464L76.65 30.6837H80.7737L81.6961 24.8237H77.5724ZM16.639 5.15465C16.639 3.7439 17.1545 2.52306 18.1583 1.51926C19.1621 0.515464 20.3829 0 21.8208 0C23.3129 0 24.5609 0.488334 25.5647 1.465C26.5685 2.44167 27.0568 3.66251 27.0568 5.15465C27.0568 6.61965 26.5414 7.86762 25.5376 8.87142C24.5338 9.87522 23.2858 10.3907 21.8208 10.3907C20.3829 10.3907 19.1621 9.87522 18.1583 8.84429C17.1545 7.84049 16.639 6.59252 16.639 5.15465ZM3.53535 33.0169C2.91137 33.0983 2.3959 33.1797 1.90757 33.4238C0.958028 33.885 0.334045 34.8074 0.279785 35.7841L2.17887 50.19L2.64007 53.8254C2.69433 54.1781 2.69433 54.3409 2.77572 54.5036C2.82998 54.6935 2.91136 54.8563 3.01988 55.0191C3.23692 55.3175 3.53535 55.5888 3.8609 55.7516C4.53915 56.1043 5.48869 56.0772 6.19406 55.6973C6.89944 55.3447 7.30639 54.6935 7.33352 53.961L5.78712 39.6094L5.62434 38.063L7.17074 37.9002L16.1235 36.9507L18.3753 36.7337C19.0536 36.6523 19.6775 36.5437 20.2201 36.3538C21.3053 35.974 21.875 35.35 22.282 34.1835C22.6618 33.0983 22.8246 31.4434 23.123 30.0055L23.9098 25.5562L25.4833 16.6848L25.8903 14.4873C25.9988 13.8362 26.0259 13.2122 25.9174 12.6967C25.8089 12.1812 25.5918 11.8828 25.2391 11.6387C24.8593 11.3945 24.2625 11.286 23.6114 11.2588C20.9526 11.2046 18.1583 12.3169 16.3948 14.4601C15.4996 15.4911 14.8485 16.7662 14.4958 18.1227C14.333 18.7738 14.2245 19.5605 14.1431 20.3202L13.8447 22.5991L12.6238 31.4705C10.2364 32.0131 7.79472 32.3115 5.38017 32.6913L3.53535 33.0169Z" fill="#F04C37"/>
<path d="M37.3119 12.6152H29.607C29.607 12.6152 26.677 30.765 25.9174 35.1872C25.429 37.9815 23.34 39.9349 20.4372 40.2604C18.9179 40.4232 17.0188 40.6402 10.2906 40.8302L12.1083 48.535C17.5072 48.5079 20.3015 47.9924 20.9526 47.911C27.8165 46.8801 32.2386 43.0819 33.3509 37.1948C34.3276 32.23 37.3119 12.6152 37.3119 12.6152Z" fill="#F04C37"/>
</g>
<defs>
<clipPath id="clip0_464_1724">
<rect width="110.065" height="56" fill="white" transform="translate(0.279785)"/>
</clipPath>
</defs>
</svg>
