<?xml version="1.0" encoding="UTF-8"?>
<svg id="Capa_1" data-name="Capa 1" xmlns="http://www.w3.org/2000/svg" viewBox="0 0 46.65 29.72">
  <defs>
    <style>
      .cls-1 {
        fill: #ed6b6d;
      }
    </style>
  </defs>
  <path class="cls-1" d="m0,29.22c3.76.25,6.5.01,9.96-1.91,1.32-.73,2.59-1.54,3.83-2.4,4.51-3.08,9.15-5.97,13.81-8.81,2.53-1.54,4.93-3.3,7.59-4.63.28-.14.67-.53.91-.19.23.33-.25.59-.48.8-2.77,2.57-5.74,4.92-8.71,7.25-4.13,3.26-8.31,6.46-12.46,9.7-.14.11-.37.19-.27.55.97-.17,2.04.35,2.94-.48.97-.88,1.94-1.75,2.92-2.63.67-.61.77-.61,1.12.23.83,2.03,2.34,2.93,4.52,2.93,2.27,0,4.55-.09,6.82.07.63.04,1.09-.23,1.37-.81.38-.78.79-1.54,1.17-2.31,2.28-4.6,4.44-9.27,6.54-13.95,1.65-3.67,3.28-7.35,4.76-11.1.5-1.25.46-1.33-.9-1.36-3.56-.06-7.11-.35-10.67-.07-2.69.21-5.05,1.1-6.97,3.04-1.47,1.47-2.82,3.05-4.26,4.54-5.99,6.23-11.98,12.48-18.58,18.09-1.53,1.3-2.96,2.79-4.97,3.43Z"/>
</svg>