<svg width="30" height="31" viewBox="0 0 30 31" fill="none" xmlns="http://www.w3.org/2000/svg">
<path d="M0.9375 15.5C0.9375 18.2656 1.73437 20.8438 3.09375 23H26.8594C28.2188 20.8438 29.0156 18.2656 29.0156 15.5C29.0156 12.7344 28.2188 10.1562 26.8594 8H3.09375C1.73437 10.1562 0.9375 12.7344 0.9375 15.5Z" fill="#FFCE31"/>
<path d="M26.9063 8C24.4219 4.0625 20.0156 1.4375 15 1.4375C9.98438 1.4375 5.57812 4.0625 3.09375 8H26.9063Z" fill="#ED4C5C"/>
<path d="M3.09375 23C5.57812 26.9375 9.98438 29.5625 15 29.5625C20.0156 29.5625 24.4219 26.9375 26.9063 23H3.09375Z" fill="#ED4C5C"/>
<path d="M4.3125 13.9531H5.8125V14.7969H4.3125V13.9531Z" fill="#C8B100"/>
<path d="M4.3125 20.1406H5.85938V20.9375H4.3125V20.1406Z" fill="#C8B100"/>
<path d="M4.17188 18.8281C4.03125 18.9219 3.9375 19.0156 3.9375 19.0625C3.9375 19.1094 3.98438 19.1563 4.07813 19.2031C4.17188 19.25 4.26563 19.3438 4.21875 19.4375C4.3125 19.3438 4.35938 19.25 4.35938 19.1563C4.35938 19.0156 4.26563 18.875 4.17188 18.8281Z" fill="#ED4C5C"/>
<path d="M4.54688 14.7969H5.625V20.1406H4.54688V14.7969Z" fill="white"/>
<path d="M6.75005 16.7656C6.51567 16.6719 6.0938 16.5781 5.62505 16.5781C5.48442 16.5781 5.29692 16.5781 5.10942 16.625C4.45317 16.7188 3.93755 17 3.98442 17.1875L3.75005 16.6719C3.70317 16.4375 4.26567 16.1562 4.9688 16.0156C5.20317 15.9687 5.43755 15.9688 5.62505 15.9688C6.0938 15.9688 6.51567 16.0156 6.75005 16.1094V16.7656Z" fill="#ED4C5C"/>
<path d="M4.54687 17.4688C4.26562 17.4688 4.03125 17.375 4.03125 17.2344C4.03125 17.1406 4.125 17 4.3125 16.9062H4.59375L4.54687 17.4688Z" fill="#ED4C5C"/>
<path d="M5.625 17.0469C5.8125 17.0938 5.95312 17.1406 6.04687 17.1875C6.09375 17.2344 5.90625 17.4219 5.625 17.5625V17.0469Z" fill="#ED4C5C"/>
<path d="M3.84382 18.5C3.79695 18.4063 4.12507 18.2188 4.54695 18.0781C4.73445 18.0313 4.87507 17.9375 5.10945 17.8438C5.67195 17.6094 6.1407 17.2813 6.04695 17.1875L6.1407 17.75C6.18757 17.8438 5.81257 18.125 5.25007 18.4063C5.06257 18.5 4.73445 18.6406 4.54695 18.6875C4.21882 18.7813 3.93757 18.9688 3.93757 19.0156L3.84382 18.5Z" fill="#ED4C5C"/>
<path d="M14.3906 13.9531H15.8906V14.7969H14.3906V13.9531Z" fill="#C8B100"/>
<path d="M14.3438 20.1406H15.8906V20.9375H14.3438V20.1406Z" fill="#C8B100"/>
<path d="M16.0313 18.8281C16.1719 18.9219 16.2656 19.0156 16.2656 19.0625C16.2656 19.1094 16.2188 19.1563 16.125 19.2031C16.0313 19.2969 15.9375 19.4375 15.9844 19.4844C15.8906 19.3906 15.8438 19.2969 15.8438 19.2031C15.8438 19.0156 15.9375 18.875 16.0313 18.8281Z" fill="#ED4C5C"/>
<path d="M14.5781 14.7969H15.6563V20.1406H14.5781V14.7969Z" fill="white"/>
<path d="M13.4531 16.7656C13.6875 16.6719 14.1094 16.5781 14.5781 16.5781C14.7187 16.5781 14.9062 16.5781 15.0937 16.625C15.75 16.7188 16.2656 17 16.2187 17.1875L16.4531 16.625C16.5 16.3906 15.9375 16.1094 15.2344 15.9688H14.5781C14.1094 15.9688 13.6875 16.0156 13.4531 16.1094V16.7656Z" fill="#ED4C5C"/>
<path d="M15.6563 17.4688C15.9375 17.4688 16.1719 17.375 16.1719 17.2344C16.1719 17.1406 16.0781 17 15.8906 16.9062H15.6094L15.6563 17.4688Z" fill="#ED4C5C"/>
<path d="M14.5781 17.0469C14.3906 17.0938 14.25 17.1406 14.1562 17.1875C14.1094 17.2344 14.2969 17.4219 14.5781 17.5625V17.0469Z" fill="#ED4C5C"/>
<path d="M16.3594 18.5C16.4063 18.4063 16.0782 18.2188 15.6563 18.0781C15.4688 18.0313 15.3282 17.9375 15.0938 17.8438C14.5313 17.6094 14.0625 17.2812 14.1563 17.1875L14.0625 17.75C14.0157 17.8438 14.3907 18.125 14.9532 18.4063C15.1407 18.5 15.4688 18.6406 15.6563 18.6875C15.9844 18.7813 16.2657 19.0156 16.2188 19.0625L16.3594 18.5Z" fill="#ED4C5C"/>
<path d="M10.0781 10.9531C10.9688 10.9531 12.7969 11.1406 13.4531 11.7969C12.75 13.4844 11.625 12.7813 10.0781 12.7813C8.57812 12.7813 7.40625 13.4844 6.70312 11.7969C7.35938 11.1406 9.14062 10.9531 10.0781 10.9531Z" fill="#ED4C5C"/>
<path d="M12.375 12.8281C11.8125 12.5 10.9687 12.4531 10.0781 12.4531C9.1875 12.4531 8.34375 12.5469 7.78125 12.8281L7.96875 13.625C8.48437 13.7656 9.23437 13.8594 10.0781 13.9063C10.9219 13.9063 11.625 13.8125 12.1875 13.625L12.375 12.8281Z" fill="#C8B100"/>
<path d="M13.1719 10.8125C12.9844 10.6719 12.6094 10.5312 12.2813 10.5312C12.1406 10.5312 12 10.5312 11.8594 10.5781C11.8594 10.5781 11.5781 10.2031 10.9219 10.2031C10.6875 10.2031 10.5 10.25 10.3125 10.3438V10.2969C10.2656 10.2031 10.1719 10.1094 10.0781 10.1094C9.98438 10.1094 9.84375 10.25 9.84375 10.3438V10.3906C9.65625 10.2969 9.46875 10.25 9.23438 10.25C8.57813 10.25 8.29688 10.6719 8.29688 10.625C8.15625 10.5781 8.01562 10.5781 7.875 10.5781C5.71875 10.5781 6.79688 12.0313 6.79688 12.0313L7.03125 11.75C6.51563 11.0938 6.98437 10.7187 7.92188 10.7187C8.0625 10.7187 8.15625 10.7187 8.25 10.7656C7.92188 11.2344 8.53125 11.6562 8.53125 11.6562L8.67188 11.4219C8.34375 11.1875 8.29688 10.3906 9.23438 10.3906C9.46875 10.3906 9.65625 10.4375 9.84375 10.5781C9.84375 10.625 9.79687 11.2813 9.75 11.375L10.125 11.7031L10.5 11.375C10.4531 11.2344 10.4063 10.625 10.4063 10.5781C10.5469 10.4844 10.7813 10.3906 11.0156 10.3906C12 10.3906 12 11.1875 11.5781 11.4219L11.7188 11.6562C11.7188 11.6562 12.2344 11.2344 12 10.7656C12.0938 10.7656 12.2344 10.7187 12.3281 10.7187C13.4531 10.7187 13.5 11.5625 13.2188 11.75L13.4063 12.0313C13.3125 12.0313 13.8281 11.375 13.1719 10.8125Z" fill="#C8B100"/>
<path d="M9.79688 9.92188C9.79688 9.78125 9.9375 9.64062 10.0781 9.64062C10.2188 9.64062 10.3594 9.78125 10.3594 9.92188C10.3594 10.0625 10.2188 10.2031 10.0781 10.2031C9.9375 10.2031 9.79688 10.0625 9.79688 9.92188Z" fill="#005BBF"/>
<path d="M9.98437 9.125V9.26563H9.84375V9.40625H9.98437V9.875H9.79688V10.0156H10.3594L10.4063 9.92188L10.3594 9.875H10.1719V9.40625H10.3125V9.26563H10.1719V9.125H9.98437Z" fill="#C8B100"/>
<path d="M10.0781 13.7656C9.32813 13.7656 8.67188 13.6719 8.15625 13.5312C8.67188 13.3906 9.32813 13.2969 10.0781 13.2969C10.8281 13.2969 11.4844 13.3906 12 13.5312C11.5313 13.6719 10.8281 13.7656 10.0781 13.7656Z" fill="#ED4C5C"/>
<path d="M10.125 21.875C9.23438 21.875 8.39062 21.6406 7.64062 21.3125C7.07812 21.0313 6.75 20.5156 6.75 19.9063V17.6562H13.5V19.9063C13.5 20.5156 13.125 21.0781 12.6094 21.3125C11.8594 21.6875 11.0156 21.875 10.125 21.875Z" fill="white"/>
<path d="M10.0781 13.9062H13.4531V17.6562H10.0781V13.9062Z" fill="white"/>
<path d="M10.125 19.9063C10.125 20.7969 9.375 21.5 8.4375 21.5C7.5 21.5 6.75 20.7969 6.75 19.9063V17.6562H10.125V19.9063Z" fill="#ED4C5C"/>
<path d="M7.45312 21.2187C7.54687 21.2656 7.6875 21.3594 7.875 21.4062V17.5625H7.5L7.45312 21.2187Z" fill="#C8B100"/>
<path d="M6.70312 19.8594C6.70312 20.3281 6.89063 20.7031 7.07813 20.8906V17.5625H6.70312V19.8594Z" fill="#C8B100"/>
<path d="M8.20312 21.5H8.57812V17.5625H8.20312V21.5Z" fill="#C7B500"/>
<path d="M8.95312 21.4062C9.09375 21.3594 9.28125 21.2656 9.375 21.2187V17.5625H9L8.95312 21.4062Z" fill="#C8B100"/>
<path d="M6.70312 13.9062H10.0781V17.6562H6.70312V13.9062Z" fill="#ED4C5C"/>
<path d="M9.75 20.8906C9.9375 20.75 10.0781 20.4219 10.125 20.0469V17.6094H9.75V20.8906Z" fill="#C8B100"/>
<path d="M13.5 17.6562V19.9063C13.5 20.7969 12.75 21.5 11.8125 21.5C10.875 21.5 10.125 20.7969 10.125 19.9063V17.6562H13.5Z" fill="#ED4C5C"/>
<path d="M12.2813 14.5625C12.4219 14.8437 12.4219 15.5469 12 15.4062C12.0937 15.4531 12.1406 15.7812 12.2813 15.9687C12.5156 16.25 12.7969 16.0156 12.75 15.6875C12.6563 15.1719 12.7031 14.8437 12.7969 14.3281C12.7969 14.375 13.0312 14.375 13.125 14.2812C13.0781 14.4219 13.0312 14.6094 13.125 14.6094C13.0312 14.75 12.7969 14.9844 12.75 15.125C12.7031 15.4531 13.2188 16.0625 12.6562 16.2031C12.2812 16.2969 12.5156 16.5781 12.6562 16.7187C12.6562 16.7187 12.4687 17.3281 12.5625 17.2812C12.1875 17.4219 12.2813 17.0937 12.2813 17.0937C12.4688 16.5312 11.9531 16.4844 12 16.3906C11.5312 16.3437 12.0469 16.8125 11.625 16.8125C11.5312 16.8125 11.3437 16.9062 11.3437 16.9062C10.8281 16.8594 11.1094 16.3906 11.2969 16.4375C11.4375 16.4844 11.5781 16.7187 11.5781 16.3906C11.5781 16.3906 11.3437 16.0156 11.9531 16.0156C11.7187 16.0156 11.5781 15.8281 11.4844 15.5937C11.3906 15.6406 11.25 15.875 10.7344 15.9219C10.7344 15.9219 10.5937 15.4062 10.7344 15.5C10.9219 15.5937 11.0156 15.5937 11.2031 15.4062C11.1094 15.2656 10.5469 15.0781 10.6406 14.75C10.6406 14.6562 10.9219 14.5156 10.9219 14.5156C10.875 14.75 11.0156 14.9844 11.2969 14.9844C11.6719 15.0312 11.5312 14.8906 11.5781 14.7969C11.625 14.7031 11.9062 14.8437 11.8125 14.6094C11.8125 14.5625 11.4844 14.5156 11.5781 14.375C11.7656 14.1406 12.0469 14.3281 12.2813 14.5625Z" fill="#ED4C5C"/>
<path d="M10.125 21.4062L10.0312 21.1719L10.125 20.8906L10.2187 21.1719L10.125 21.4062Z" fill="#ED4C5C"/>
<path d="M7.73438 14.7031V14.9375H7.82813V15.125H7.59375V15.5938H7.73438V16.625H7.45312V17.1406H9.375V16.625H9.14063V15.5938H9.23438V15.125H9V14.9375H9.14063V14.7031H8.67188V14.9375H8.76563V15.125H8.53125V14.5625H8.67188V14.3281H8.15625V14.5625H8.29688V15.125H8.0625V14.9375H8.15625V14.7031H7.73438Z" fill="#C8B100"/>
<path d="M13.0312 20.4688V18.125H10.5938V20.4688L11.7187 20.9844H11.8594L13.0312 20.4688ZM11.7187 18.3125V19.1094L10.9219 18.3125H11.7187ZM10.7344 18.3594L11.6719 19.2969L10.7344 20.2344V18.3594ZM10.8281 20.4219L11.7187 19.5313V20.8438L10.8281 20.4219ZM11.8594 20.7969V19.4844L12.75 20.375L11.8594 20.7969ZM12.8437 20.2344L11.9062 19.2969L12.8437 18.3594V20.2344ZM11.8594 18.3125H12.6562L11.8594 19.1094V18.3125Z" fill="#C8B100"/>
<path d="M9 17.6094C9 16.9062 9.46875 16.3906 10.0781 16.3906C10.6875 16.3906 11.1562 16.9531 11.1562 17.6094C11.1562 18.2656 10.6875 18.8281 10.0781 18.8281C9.46875 18.8281 9 18.3125 9 17.6094Z" fill="#ED4C5C"/>
<path d="M9.32812 17.6094C9.32812 17.0938 9.65625 16.7188 10.0781 16.7188C10.5 16.7188 10.8281 17.1406 10.8281 17.6094C10.8281 18.125 10.5 18.5 10.0781 18.5C9.65625 18.5 9.32812 18.125 9.32812 17.6094Z" fill="#005BBF"/>
<path d="M9.75 17L9.5625 17.5156L9.70313 17.5625L9.60938 17.75H9.89063L9.79688 17.5625L9.9375 17.5156L9.75 17Z" fill="#C8B100"/>
<path d="M10.4531 17L10.2656 17.5156L10.4063 17.5625L10.3125 17.75H10.5938L10.5469 17.5625L10.6875 17.5156L10.4531 17Z" fill="#C8B100"/>
<path d="M10.125 17.6094L9.89062 18.125L10.0312 18.1719L9.98437 18.3594H10.2187L10.1719 18.1719L10.3125 18.125L10.125 17.6094Z" fill="#C8B100"/>
</svg>
