<svg width="50" height="50" viewBox="0 0 50 50" fill="none" xmlns="http://www.w3.org/2000/svg">
<circle cx="25" cy="25" r="25" fill="#F8A0A0"/>
<mask id="mask0_557_1050" style="mask-type:alpha" maskUnits="userSpaceOnUse" x="0" y="0" width="50" height="50">
<circle cx="25" cy="25" r="25" fill="#FED18F"/>
</mask>
<g mask="url(#mask0_557_1050)">
<path d="M33.9706 20.2941C33.9706 21.7862 33.8115 23.2207 33.5182 24.5588C33.4637 24.8073 33.4046 25.0525 33.341 25.2941C32.0698 30.1251 29.0117 33.5294 25.4412 33.5294C22.686 33.5294 20.2359 31.5023 18.6765 28.3567C18.1743 27.3437 17.7646 26.2147 17.4667 25C17.1082 23.5378 16.9118 21.9516 16.9118 20.2941C16.9118 19.5938 16.5502 18.7592 16.6177 18.0883C16.7944 16.3324 16.6304 14.8379 17.2059 13.3824C17.7979 11.8851 17.9086 10.4376 18.8236 9.41178C20.2266 7.83878 23.578 7.05884 25.4412 7.05884C27.4725 7.05884 29.8587 7.57237 31.3236 9.41178C33.095 11.636 33.7599 15.5271 33.9452 19.2647C33.9621 19.6044 33.9706 19.9477 33.9706 20.2941Z" fill="#8C4E37"/>
<path d="M16.9118 20.2941C16.9118 20.2941 16.3074 19.7496 15.8824 19.853C15.6034 19.9208 15.4341 20.0434 15.2942 20.2941C15.1262 20.595 15.1838 20.8501 15.2942 21.1765C15.4119 21.5249 15.7473 21.5698 15.8824 21.9118C16.0512 22.3391 15.8031 22.6357 15.8824 23.0883C15.9671 23.5716 16.0715 23.8438 16.3236 24.2647C16.5125 24.5802 16.5633 24.8828 16.9118 25C17.1172 25.0691 17.4667 25 17.4667 25C17.1082 23.5378 16.9118 21.9516 16.9118 20.2941Z" fill="#8C4E37"/>
<path d="M33.9452 19.2647C33.9621 19.6044 33.9706 19.9477 33.9706 20.2941C33.9706 21.7862 33.8115 23.2207 33.5182 24.5588L33.9452 24.4118C33.9452 24.4118 34.2802 23.9605 34.4118 23.6765C34.5738 23.327 34.6411 23.1739 34.7059 22.7941C34.7743 22.3938 34.7059 21.7647 34.7059 21.7647C34.7059 21.7647 34.6116 21.1261 34.7059 20.7353C34.7963 20.3608 35.0001 19.853 35.0001 19.853C35.0001 19.853 35.1569 19.3582 35.0001 19.1177C34.8869 18.9442 34.7648 18.8449 34.5589 18.8235C34.2653 18.7931 33.9452 19.2647 33.9452 19.2647Z" fill="#8C4E37"/>
<path d="M33.341 25.2941C32.0698 30.1251 29.0117 33.5294 25.4412 33.5294C22.686 33.5294 20.2359 31.5023 18.6765 28.3567V33.5294L18.3824 34.1177L17.6471 34.5588L16.9118 36.6177L18.3824 39.1177L21.9118 41.9118L29.2648 42.9412L34.7059 41.6177L36.7648 39.1177L33.9452 34.1177H33.0883L33.341 25.2941Z" fill="#8C4E37"/>
<path d="M22.9412 9.26471H25C25 9.26471 26.3429 9.14193 27.2059 9.11765C27.8374 9.09989 28.193 9.07933 28.8235 9.11765C29.3426 9.1492 29.6771 9.04209 30.1471 9.26471C30.4794 9.42213 30.7283 9.51906 30.8824 9.85295C31.0268 10.1658 30.7636 10.4119 30.8824 10.7353C30.9814 11.0048 31.1381 11.1043 31.3235 11.3235C31.5859 11.6335 31.9473 11.6684 32.0588 12.0588C32.122 12.2797 32.0271 12.4195 32.0588 12.6471C32.1193 13.0802 32.2708 13.304 32.5 13.6765C32.6927 13.9897 32.9463 14.0726 33.0883 14.4118C33.2878 14.8886 33.0674 15.2189 33.0883 15.7353C33.1279 16.7175 33.0075 17.3266 33.3824 18.2353C33.559 18.6633 33.9706 19.2647 33.9706 19.2647L34.4118 18.8235C34.4118 18.8235 34.4738 17.2084 34.4118 16.1765C34.3528 15.1952 34.2605 14.6491 34.1177 13.6765C33.9737 12.6956 33.9113 12.1397 33.6765 11.1765C33.3754 9.94138 33.3057 9.1756 32.6471 8.08824C32.0366 7.08035 31.5339 6.58542 30.5883 5.88236C29.8048 5.29986 29.3043 5.02716 28.3824 4.70589C27.2319 4.305 26.5121 4.23639 25.2941 4.26471C24.2464 4.28908 23.652 4.4084 22.6471 4.70589C21.3662 5.08507 20.6834 5.45561 19.5588 6.17648C18.4941 6.85902 17.8172 7.22315 17.0588 8.2353C16.4118 9.0988 16.1654 9.69407 15.8824 10.7353C15.5205 12.0665 15.5883 12.7941 15.7353 14.2647C15.8612 15.5232 15.7236 16.2453 15.8824 17.5C15.9998 18.4275 16.3235 20 16.3235 20L17.0588 20.4412C17.0588 20.4412 16.9391 19.3102 16.9118 18.6765C16.8871 18.1027 16.9118 17.2059 16.9118 17.2059C16.9118 17.2059 16.7134 15.9585 17.0588 15.2941C17.1544 15.1104 17.2478 15.0313 17.353 14.8529C17.4834 14.6317 17.5497 14.5024 17.6471 14.2647C17.9764 13.4605 17.6776 12.887 17.9412 12.0588C18.1749 11.3246 18.3052 10.8643 18.8235 10.2941C19.3272 9.74006 19.7308 9.5015 20.4412 9.26471C21.3674 8.95598 21.9649 9.26471 22.9412 9.26471Z" fill="#1F140A"/>
<path fill-rule="evenodd" clip-rule="evenodd" d="M30.8824 25.2941C30.8824 25.2941 30.5255 24.5823 30.1471 24.2647C29.7895 23.9646 29.4713 23.8843 29.0822 23.7861C28.9557 23.7542 28.8217 23.7203 28.6765 23.6765C28.1696 23.5234 27.8756 23.4669 27.353 23.3824C26.7268 23.281 26.3692 23.2594 25.7353 23.2353C25.6173 23.2308 25.5122 23.2242 25.4135 23.2179C25.1283 23.1999 24.8965 23.1853 24.5588 23.2353C24.0199 23.3151 23.3824 23.5539 23.0883 23.6765C22.6141 23.874 22.0588 24.1177 22.0588 24.1177C22.0588 24.1177 21.4182 24.6221 21.1765 25C20.9808 25.306 20.8824 25.8824 20.8824 25.8824C20.8824 25.8824 20.2414 25.7429 19.853 25.5882C19.8336 25.5805 19.8145 25.573 19.7956 25.5654C19.2064 25.3312 18.8257 25.1798 18.3824 24.7059C18.0053 24.3029 17.8793 23.9788 17.6889 23.4897C17.6753 23.4548 17.6614 23.419 17.6471 23.3824C17.4947 22.993 17.353 22.3529 17.353 22.3529C17.353 22.3529 17.1779 23.9812 17.353 25C17.4533 25.5839 17.5916 25.9575 17.765 26.4257C17.8202 26.5749 17.879 26.7336 17.9412 26.9118C18.0091 27.1063 18.0678 27.2834 18.1231 27.45C18.3167 28.0339 18.4678 28.4896 18.8235 29.1177C19.1829 29.7521 19.4619 30.0878 19.9031 30.6187C19.9346 30.6565 19.9668 30.6953 20 30.7353C20.1324 30.8948 20.2527 31.0449 20.3668 31.1873C20.8785 31.8257 21.2658 32.3089 22.0588 32.7941C22.6957 33.1838 23.1055 33.3248 23.8235 33.5294C24.8787 33.8301 25.5236 33.9068 26.6177 33.8235C27.4376 33.7612 27.9172 33.6981 28.6765 33.3824C29.6629 32.9722 30.1358 32.5288 30.8824 31.7647C31.6617 30.9671 31.9991 30.408 32.5 29.4118C32.9651 28.4868 33.1495 27.9206 33.3824 26.9118C33.5616 26.1352 33.6001 25.6562 33.6597 24.914C33.6651 24.8469 33.6706 24.7777 33.6765 24.7059C33.7884 23.3321 33.6765 21.1765 33.6765 21.1765L33.0883 22.9412C33.0883 22.9412 32.8301 23.8887 32.5 24.4118C32.4663 24.4652 32.4349 24.5162 32.4049 24.5651C32.2215 24.8632 32.0867 25.0823 31.7647 25.2941C31.5063 25.4641 31.0294 25.5882 31.0294 25.5882L30.8824 25.2941ZM29.0922 25.3184C28.9429 25.0738 28.8188 24.8705 28.5294 24.7059C27.9804 24.3935 26.9118 24.7059 26.9118 24.7059H25.7353C25.7353 24.7059 24.6459 24.5685 23.9706 24.7059C23.9476 24.7106 23.925 24.7151 23.9026 24.7197C23.3348 24.8347 22.9558 24.9115 22.5 25.2941C22.1216 25.6117 21.8884 25.8452 21.7647 26.3235C21.6784 26.6571 21.691 26.8693 21.7647 27.2059C21.8806 27.7351 22.0648 28.0597 22.5 28.3824C22.7064 28.5353 22.8428 28.6009 23.0883 28.6765C23.1594 28.6984 23.2341 28.7244 23.31 28.7509C23.7031 28.8881 24.1295 29.037 24.2647 28.6765C24.2647 28.6765 24.2286 28.1096 24.2647 27.9412C24.3173 27.6959 24.4218 27.6622 24.5853 27.6095C24.6615 27.5849 24.7505 27.5562 24.853 27.5C25.093 27.3685 25.3015 27.4459 25.528 27.5299C25.6817 27.587 25.8437 27.6471 26.0294 27.6471C26.1732 27.6471 26.297 27.5946 26.4148 27.5447C26.5793 27.475 26.7322 27.4102 26.9118 27.5C26.969 27.5286 27.0428 27.5563 27.1215 27.5859C27.3428 27.669 27.6035 27.7669 27.6471 27.9412C27.7608 28.396 27.7628 28.3959 27.9122 28.3843C27.9561 28.3809 28.0126 28.3765 28.0883 28.3824C28.3861 28.4053 28.5641 28.262 28.7752 28.0921C28.8363 28.0429 28.9002 27.9915 28.9706 27.9412C29.0272 27.9007 29.0819 27.8637 29.1343 27.8282C29.3874 27.6567 29.5878 27.521 29.7059 27.2059C29.8269 26.8832 29.7992 26.6552 29.7059 26.3235C29.6388 26.085 29.5339 25.9475 29.4065 25.7806C29.3618 25.722 29.3143 25.6598 29.2647 25.5882C29.1988 25.4933 29.144 25.4034 29.0922 25.3184Z" fill="#1F140A"/>
<path d="M17.6471 35.5883C17.7638 34.9569 18.3824 34.1177 18.3824 34.1177C18.3824 34.1177 16.1168 35.1437 14.7059 35.8824C12.6989 36.9331 11.606 37.59 9.70588 38.8236C7.56683 40.2123 6.47821 41.1525 4.41177 42.6471C2.74562 43.8522 1.46316 44.1554 0.147059 45.7353C-0.628339 46.6662 -0.937322 47.2946 -1.47059 48.3824C-1.95881 49.3783 -2.5 51.0294 -2.5 51.0294L55.4412 51.7647C55.4412 51.7647 55.547 50.0566 55.4412 48.9706C55.2804 47.3209 55.0893 46.3657 54.4118 44.853C54.0332 44.0078 53.7575 43.5589 53.2353 42.7941C52.3639 41.518 51.7589 40.8616 50.5882 39.853C48.1752 37.7739 46.1704 37.5606 43.2353 36.3236C39.3691 34.6942 33.0882 33.0883 33.0882 33.0883V34.1177C33.0882 34.1177 33.573 34.1868 33.8235 34.5588C34.3418 35.3284 34.5794 35.8456 34.7059 36.7647C34.8733 37.981 34.7349 38.7917 34.1176 39.853C33.1865 41.4539 31.7945 41.7477 30 42.2059C28.3307 42.6321 27.2852 42.504 25.5882 42.2059C24.032 41.9325 23.1436 41.654 21.7647 40.8824C20.4811 40.1641 18.8235 38.5294 18.8235 38.5294C18.8235 38.5294 17.4222 36.8047 17.6471 35.5883Z" fill="#45537A"/>
</g>
</svg>
