<svg width="1280" height="584" viewBox="0 0 1280 584" fill="none" xmlns="http://www.w3.org/2000/svg">
<path d="M1 563C60.7333 552.333 103.4 552.333 129 563C154.6 573.667 197.267 573.667 257 563C316.733 552.333 359.4 552.333 385 563C410.6 573.667 453.267 573.667 513 563C572.733 552.333 615.4 552.333 641 563C666.6 573.667 709.267 573.667 769 563C828.733 552.333 871.4 552.333 897 563C922.6 573.667 965.267 573.667 1025 563C1084.73 552.333 1127.4 552.333 1153 563C1178.6 573.667 1221.27 573.667 1281 563" stroke="#D9D9D9" stroke-opacity="0.5" stroke-width="2"/>
<path d="M1.09013 545C18.1568 534.333 60.8235 534.333 129.09 545C197.357 555.667 240.023 555.667 257.09 545C274.157 534.333 316.823 534.333 385.09 545C453.357 555.667 496.023 555.667 513.09 545C530.157 534.333 572.823 534.333 641.09 545C709.357 555.667 752.023 555.667 769.09 545C786.157 534.333 828.823 534.333 897.09 545C965.357 555.667 1008.02 555.667 1025.09 545C1042.16 534.333 1084.82 534.333 1153.09 545C1221.36 555.667 1264.02 555.667 1281.09 545" stroke="#D9D9D9" stroke-opacity="0.5" stroke-width="2"/>
<path d="M1 429C60.7333 418.333 103.4 418.333 129 429C154.6 439.667 197.267 439.667 257 429C316.733 418.333 359.4 418.333 385 429C410.6 439.667 453.267 439.667 513 429C572.733 418.333 615.4 418.333 641 429C666.6 439.667 709.267 439.667 769 429C828.733 418.333 871.4 418.333 897 429C922.6 439.667 965.267 439.667 1025 429C1084.73 418.333 1127.4 418.333 1153 429C1178.6 439.667 1221.27 439.667 1281 429" stroke="#D9D9D9" stroke-opacity="0.5" stroke-width="2"/>
<path d="M1.09013 411C18.1568 400.333 60.8235 400.333 129.09 411C197.357 421.667 240.023 421.667 257.09 411C274.157 400.333 316.823 400.333 385.09 411C453.357 421.667 496.023 421.667 513.09 411C530.157 400.333 572.823 400.333 641.09 411C709.357 421.667 752.023 421.667 769.09 411C786.157 400.333 828.823 400.333 897.09 411C965.357 421.667 1008.02 421.667 1025.09 411C1042.16 400.333 1084.82 400.333 1153.09 411C1221.36 421.667 1264.02 421.667 1281.09 411" stroke="#D9D9D9" stroke-opacity="0.5" stroke-width="2"/>
<path d="M1281 295C1221.27 305.667 1178.6 305.667 1153 295C1127.4 284.333 1084.73 284.333 1025 295C965.267 305.667 922.6 305.667 897 295C871.4 284.333 828.733 284.333 769 295C709.267 305.667 666.6 305.667 641 295C615.4 284.333 572.733 284.333 513 295C453.267 305.667 410.6 305.667 385 295C359.4 284.333 316.733 284.333 257 295C197.267 305.667 154.6 305.667 129 295C103.4 284.333 60.7333 284.333 1 295" stroke="#D9D9D9" stroke-opacity="0.5" stroke-width="2"/>
<path d="M1281.09 277C1264.02 287.667 1221.36 287.667 1153.09 277C1084.82 266.333 1042.16 266.333 1025.09 277C1008.02 287.667 965.357 287.667 897.09 277C828.823 266.333 786.157 266.333 769.09 277C752.023 287.667 709.357 287.667 641.09 277C572.823 266.333 530.157 266.333 513.09 277C496.023 287.667 453.357 287.667 385.09 277C316.823 266.333 274.157 266.333 257.09 277C240.023 287.667 197.357 287.667 129.09 277C60.8235 266.333 18.1568 266.333 1.09012 277" stroke="#D9D9D9" stroke-opacity="0.5" stroke-width="2"/>
<path d="M2 161C61.7333 150.333 104.4 150.333 130 161C155.6 171.667 198.267 171.667 258 161C317.733 150.333 360.4 150.333 386 161C411.6 171.667 454.267 171.667 514 161C573.733 150.333 616.4 150.333 642 161C667.6 171.667 710.267 171.667 770 161C829.733 150.333 872.4 150.333 898 161C923.6 171.667 966.267 171.667 1026 161C1085.73 150.333 1128.4 150.333 1154 161C1179.6 171.667 1222.27 171.667 1282 161" stroke="#D9D9D9" stroke-opacity="0.5" stroke-width="2"/>
<path d="M2.09009 143C19.1568 132.333 61.8234 132.333 130.09 143C198.357 153.667 241.023 153.667 258.09 143C275.157 132.333 317.823 132.333 386.09 143C454.357 153.667 497.023 153.667 514.09 143C531.157 132.333 573.823 132.333 642.09 143C710.357 153.667 753.023 153.667 770.09 143C787.157 132.333 829.823 132.333 898.09 143C966.357 153.667 1009.02 153.667 1026.09 143C1043.16 132.333 1085.82 132.333 1154.09 143C1222.36 153.667 1265.02 153.667 1282.09 143" stroke="#D9D9D9" stroke-opacity="0.5" stroke-width="2"/>
<path d="M1282 27C1222.27 37.6667 1179.6 37.6667 1154 27C1128.4 16.3333 1085.73 16.3333 1026 27C966.267 37.6667 923.6 37.6667 898 27C872.4 16.3333 829.733 16.3333 770 27C710.267 37.6667 667.6 37.6667 642 27C616.4 16.3333 573.733 16.3333 514 27C454.267 37.6667 411.6 37.6667 386 27C360.4 16.3333 317.733 16.3333 258 27C198.267 37.6667 155.6 37.6667 130 27C104.4 16.3333 61.7333 16.3333 2 27" stroke="#D9D9D9" stroke-opacity="0.5" stroke-width="2"/>
<path d="M1282 9C1264.93 19.6667 1222.27 19.6667 1154 9C1085.73 -1.66667 1043.07 -1.66667 1026 9C1008.93 19.6667 966.267 19.6667 898 9C829.733 -1.66667 787.067 -1.66667 770 9C752.933 19.6667 710.267 19.6667 642 9C573.733 -1.66667 531.067 -1.66667 514 9C496.933 19.6667 454.267 19.6667 386 9C317.733 -1.66667 275.067 -1.66667 258 9C240.933 19.6667 198.267 19.6667 130 9C61.7334 -1.66667 19.0667 -1.66667 2.00003 9" stroke="#D9D9D9" stroke-opacity="0.5" stroke-width="2"/>
</svg>
